<svg width="132" height="31" viewBox="0 0 132 31" fill="none" xmlns="http://www.w3.org/2000/svg">
<path d="M0.3125 1.25H8.35938C10.0885 1.25 11.5625 1.51042 12.7812 2.03125C14 2.55208 14.9323 3.32292 15.5781 4.34375C16.2344 5.35417 16.5625 6.60417 16.5625 8.09375C16.5625 9.22917 16.3542 10.2292 15.9375 11.0938C15.5208 11.9583 14.9323 12.6875 14.1719 13.2812C13.4115 13.8646 12.5052 14.3177 11.4531 14.6406L10.2656 15.2188H3.03125L3 12.1094H8.42188C9.35938 12.1094 10.1406 11.9427 10.7656 11.6094C11.3906 11.276 11.8594 10.8229 12.1719 10.25C12.4948 9.66667 12.6562 9.01042 12.6562 8.28125C12.6562 7.48958 12.5 6.80208 12.1875 6.21875C11.8854 5.625 11.4167 5.17188 10.7812 4.85938C10.1458 4.53646 9.33854 4.375 8.35938 4.375H4.23438V24H0.3125V1.25ZM13.2969 24L7.95312 13.7812L12.0625 13.7656L17.4844 23.7969V24H13.2969ZM29.625 20.6094V12.5469C29.625 11.9427 29.5156 11.4219 29.2969 10.9844C29.0781 10.5469 28.7448 10.2083 28.2969 9.96875C27.8594 9.72917 27.3073 9.60938 26.6406 9.60938C26.026 9.60938 25.4948 9.71354 25.0469 9.92188C24.599 10.1302 24.25 10.4115 24 10.7656C23.75 11.1198 23.625 11.5208 23.625 11.9688H19.875C19.875 11.3021 20.0365 10.6562 20.3594 10.0312C20.6823 9.40625 21.151 8.84896 21.7656 8.35938C22.3802 7.86979 23.1146 7.48438 23.9688 7.20312C24.8229 6.92188 25.7812 6.78125 26.8438 6.78125C28.1146 6.78125 29.2396 6.99479 30.2188 7.42188C31.2083 7.84896 31.9844 8.49479 32.5469 9.35938C33.1198 10.2135 33.4062 11.2865 33.4062 12.5781V20.0938C33.4062 20.8646 33.4583 21.5573 33.5625 22.1719C33.6771 22.776 33.8385 23.3021 34.0469 23.75V24H30.1875C30.0104 23.5938 29.8698 23.0781 29.7656 22.4531C29.6719 21.8177 29.625 21.2031 29.625 20.6094ZM30.1719 13.7188L30.2031 16.0469H27.5C26.8021 16.0469 26.1875 16.1146 25.6562 16.25C25.125 16.375 24.6823 16.5625 24.3281 16.8125C23.974 17.0625 23.7083 17.3646 23.5312 17.7188C23.3542 18.0729 23.2656 18.474 23.2656 18.9219C23.2656 19.3698 23.3698 19.7812 23.5781 20.1562C23.7865 20.5208 24.0885 20.8073 24.4844 21.0156C24.8906 21.224 25.3802 21.3281 25.9531 21.3281C26.724 21.3281 27.3958 21.1719 27.9688 20.8594C28.5521 20.5365 29.0104 20.1458 29.3438 19.6875C29.6771 19.2188 29.8542 18.776 29.875 18.3594L31.0938 20.0312C30.9688 20.4583 30.7552 20.9167 30.4531 21.4062C30.151 21.8958 29.7552 22.3646 29.2656 22.8125C28.7865 23.25 28.2083 23.6094 27.5312 23.8906C26.8646 24.1719 26.0938 24.3125 25.2188 24.3125C24.1146 24.3125 23.1302 24.0938 22.2656 23.6562C21.401 23.2083 20.724 22.6094 20.2344 21.8594C19.7448 21.099 19.5 20.2396 19.5 19.2812C19.5 18.3854 19.6667 17.5938 20 16.9062C20.3438 16.2083 20.8438 15.625 21.5 15.1562C22.1667 14.6875 22.9792 14.3333 23.9375 14.0938C24.8958 13.8438 25.9896 13.7188 27.2188 13.7188H30.1719ZM42 22.1562L46.5938 7.09375H50.625L43.8438 26.5781C43.6875 26.9948 43.4844 27.4479 43.2344 27.9375C42.9844 28.4271 42.6562 28.8906 42.25 29.3281C41.8542 29.776 41.3594 30.1354 40.7656 30.4062C40.1719 30.6875 39.4531 30.8281 38.6094 30.8281C38.276 30.8281 37.9531 30.7969 37.6406 30.7344C37.3385 30.6823 37.0521 30.625 36.7812 30.5625L36.7656 27.6875C36.8698 27.6979 36.9948 27.7083 37.1406 27.7188C37.2969 27.7292 37.4219 27.7344 37.5156 27.7344C38.1406 27.7344 38.6615 27.6562 39.0781 27.5C39.4948 27.3542 39.8333 27.1146 40.0938 26.7812C40.3646 26.4479 40.5938 26 40.7812 25.4375L42 22.1562ZM39.4062 7.09375L43.4219 19.75L44.0938 23.7188L41.4844 24.3906L35.3438 7.09375H39.4062ZM66.5938 16.5938H70.5C70.375 18.0833 69.9583 19.4115 69.25 20.5781C68.5417 21.7344 67.5469 22.6458 66.2656 23.3125C64.9844 23.9792 63.4271 24.3125 61.5938 24.3125C60.1875 24.3125 58.9219 24.0625 57.7969 23.5625C56.6719 23.0521 55.7083 22.3333 54.9062 21.4062C54.1042 20.4688 53.4896 19.3385 53.0625 18.0156C52.6458 16.6927 52.4375 15.2135 52.4375 13.5781V11.6875C52.4375 10.0521 52.651 8.57292 53.0781 7.25C53.5156 5.92708 54.1406 4.79688 54.9531 3.85938C55.7656 2.91146 56.7396 2.1875 57.875 1.6875C59.0208 1.1875 60.3073 0.9375 61.7344 0.9375C63.5469 0.9375 65.0781 1.27083 66.3281 1.9375C67.5781 2.60417 68.5469 3.52604 69.2344 4.70312C69.9323 5.88021 70.3594 7.22917 70.5156 8.75H66.6094C66.5052 7.77083 66.276 6.93229 65.9219 6.23438C65.5781 5.53646 65.0677 5.00521 64.3906 4.64062C63.7135 4.26562 62.8281 4.07812 61.7344 4.07812C60.8385 4.07812 60.0573 4.24479 59.3906 4.57812C58.724 4.91146 58.1667 5.40104 57.7188 6.04688C57.2708 6.69271 56.9323 7.48958 56.7031 8.4375C56.4844 9.375 56.375 10.4479 56.375 11.6562V13.5781C56.375 14.724 56.474 15.7656 56.6719 16.7031C56.8802 17.6302 57.1927 18.4271 57.6094 19.0938C58.0365 19.7604 58.5781 20.276 59.2344 20.6406C59.8906 21.0052 60.6771 21.1875 61.5938 21.1875C62.7083 21.1875 63.6094 21.0104 64.2969 20.6562C64.9948 20.3021 65.5208 19.7865 65.875 19.1094C66.2396 18.4219 66.4792 17.5833 66.5938 16.5938ZM72.9688 15.7344V15.375C72.9688 14.1562 73.1458 13.026 73.5 11.9844C73.8542 10.9323 74.3646 10.0208 75.0312 9.25C75.7083 8.46875 76.5312 7.86458 77.5 7.4375C78.4792 7 79.5833 6.78125 80.8125 6.78125C82.0521 6.78125 83.1562 7 84.125 7.4375C85.1042 7.86458 85.9323 8.46875 86.6094 9.25C87.2865 10.0208 87.8021 10.9323 88.1562 11.9844C88.5104 13.026 88.6875 14.1562 88.6875 15.375V15.7344C88.6875 16.9531 88.5104 18.0833 88.1562 19.125C87.8021 20.1667 87.2865 21.0781 86.6094 21.8594C85.9323 22.6302 85.1094 23.2344 84.1406 23.6719C83.1719 24.099 82.0729 24.3125 80.8438 24.3125C79.6042 24.3125 78.4948 24.099 77.5156 23.6719C76.5469 23.2344 75.724 22.6302 75.0469 21.8594C74.3698 21.0781 73.8542 20.1667 73.5 19.125C73.1458 18.0833 72.9688 16.9531 72.9688 15.7344ZM76.7344 15.375V15.7344C76.7344 16.4948 76.8125 17.2135 76.9688 17.8906C77.125 18.5677 77.3698 19.1615 77.7031 19.6719C78.0365 20.1823 78.4635 20.5833 78.9844 20.875C79.5052 21.1667 80.125 21.3125 80.8438 21.3125C81.5417 21.3125 82.1458 21.1667 82.6562 20.875C83.1771 20.5833 83.6042 20.1823 83.9375 19.6719C84.2708 19.1615 84.5156 18.5677 84.6719 17.8906C84.8385 17.2135 84.9219 16.4948 84.9219 15.7344V15.375C84.9219 14.625 84.8385 13.9167 84.6719 13.25C84.5156 12.5729 84.2656 11.974 83.9219 11.4531C83.5885 10.9323 83.1615 10.526 82.6406 10.2344C82.1302 9.93229 81.5208 9.78125 80.8125 9.78125C80.1042 9.78125 79.4896 9.93229 78.9688 10.2344C78.4583 10.526 78.0365 10.9323 77.7031 11.4531C77.3698 11.974 77.125 12.5729 76.9688 13.25C76.8125 13.9167 76.7344 14.625 76.7344 15.375ZM102.156 20.5V0H105.938V24H102.516L102.156 20.5ZM91.1562 15.7344V15.4062C91.1562 14.125 91.3073 12.9583 91.6094 11.9062C91.9115 10.8438 92.349 9.93229 92.9219 9.17188C93.4948 8.40104 94.1927 7.8125 95.0156 7.40625C95.8385 6.98958 96.7656 6.78125 97.7969 6.78125C98.8177 6.78125 99.7135 6.97917 100.484 7.375C101.255 7.77083 101.911 8.33854 102.453 9.07812C102.995 9.80729 103.427 10.6823 103.75 11.7031C104.073 12.7135 104.302 13.8385 104.438 15.0781V16.125C104.302 17.3333 104.073 18.4375 103.75 19.4375C103.427 20.4375 102.995 21.3021 102.453 22.0312C101.911 22.7604 101.25 23.3229 100.469 23.7188C99.6979 24.1146 98.7969 24.3125 97.7656 24.3125C96.7448 24.3125 95.8229 24.099 95 23.6719C94.1875 23.2448 93.4948 22.6458 92.9219 21.875C92.349 21.1042 91.9115 20.1979 91.6094 19.1562C91.3073 18.1042 91.1562 16.9635 91.1562 15.7344ZM94.9219 15.4062V15.7344C94.9219 16.5052 94.9896 17.224 95.125 17.8906C95.2708 18.5573 95.4948 19.1458 95.7969 19.6562C96.099 20.1562 96.4896 20.5521 96.9688 20.8438C97.4583 21.125 98.0417 21.2656 98.7188 21.2656C99.5729 21.2656 100.276 21.0781 100.828 20.7031C101.38 20.3281 101.812 19.8229 102.125 19.1875C102.448 18.5417 102.667 17.8229 102.781 17.0312V14.2031C102.719 13.5885 102.589 13.0156 102.391 12.4844C102.203 11.9531 101.948 11.4896 101.625 11.0938C101.302 10.6875 100.901 10.375 100.422 10.1562C99.9531 9.92708 99.3958 9.8125 98.75 9.8125C98.0625 9.8125 97.4792 9.95833 97 10.25C96.5208 10.5417 96.125 10.9427 95.8125 11.4531C95.5104 11.9635 95.2865 12.5573 95.1406 13.2344C94.9948 13.9115 94.9219 14.6354 94.9219 15.4062ZM117.328 24.3125C116.078 24.3125 114.948 24.1094 113.938 23.7031C112.938 23.2865 112.083 22.7083 111.375 21.9688C110.677 21.2292 110.141 20.3594 109.766 19.3594C109.391 18.3594 109.203 17.2812 109.203 16.125V15.5C109.203 14.1771 109.396 12.9792 109.781 11.9062C110.167 10.8333 110.703 9.91667 111.391 9.15625C112.078 8.38542 112.891 7.79688 113.828 7.39062C114.766 6.98438 115.781 6.78125 116.875 6.78125C118.083 6.78125 119.141 6.98438 120.047 7.39062C120.953 7.79688 121.703 8.36979 122.297 9.10938C122.901 9.83854 123.349 10.7083 123.641 11.7188C123.943 12.7292 124.094 13.8438 124.094 15.0625V16.6719H111.031V13.9688H120.375V13.6719C120.354 12.9948 120.219 12.3594 119.969 11.7656C119.729 11.1719 119.359 10.6927 118.859 10.3281C118.359 9.96354 117.693 9.78125 116.859 9.78125C116.234 9.78125 115.677 9.91667 115.188 10.1875C114.708 10.4479 114.307 10.8281 113.984 11.3281C113.661 11.8281 113.411 12.4323 113.234 13.1406C113.068 13.8385 112.984 14.625 112.984 15.5V16.125C112.984 16.8646 113.083 17.5521 113.281 18.1875C113.49 18.8125 113.792 19.3594 114.188 19.8281C114.583 20.2969 115.062 20.6667 115.625 20.9375C116.188 21.1979 116.828 21.3281 117.547 21.3281C118.453 21.3281 119.26 21.1458 119.969 20.7812C120.677 20.4167 121.292 19.901 121.812 19.2344L123.797 21.1562C123.432 21.6875 122.958 22.1979 122.375 22.6875C121.792 23.1667 121.078 23.5573 120.234 23.8594C119.401 24.1615 118.432 24.3125 117.328 24.3125ZM127.188 22.125C127.188 21.5417 127.385 21.0521 127.781 20.6562C128.177 20.25 128.714 20.0469 129.391 20.0469C130.078 20.0469 130.615 20.25 131 20.6562C131.396 21.0521 131.594 21.5417 131.594 22.125C131.594 22.7083 131.396 23.1979 131 23.5938C130.615 23.9896 130.078 24.1875 129.391 24.1875C128.714 24.1875 128.177 23.9896 127.781 23.5938C127.385 23.1979 127.188 22.7083 127.188 22.125Z" fill="white"/>
</svg>
