<svg width="140" height="31" viewBox="0 0 140 31" fill="none" xmlns="http://www.w3.org/2000/svg">
<path d="M0.328125 1.25H8.375C10.1042 1.25 11.5781 1.51042 12.7969 2.03125C14.0156 2.55208 14.9479 3.32292 15.5938 4.34375C16.25 5.35417 16.5781 6.60417 16.5781 8.09375C16.5781 9.22917 16.3698 10.2292 15.9531 11.0938C15.5365 11.9583 14.9479 12.6875 14.1875 13.2812C13.4271 13.8646 12.5208 14.3177 11.4688 14.6406L10.2812 15.2188H3.04688L3.01562 12.1094H8.4375C9.375 12.1094 10.1562 11.9427 10.7812 11.6094C11.4062 11.276 11.875 10.8229 12.1875 10.25C12.5104 9.66667 12.6719 9.01042 12.6719 8.28125C12.6719 7.48958 12.5156 6.80208 12.2031 6.21875C11.901 5.625 11.4323 5.17188 10.7969 4.85938C10.1615 4.53646 9.35417 4.375 8.375 4.375H4.25V24H0.328125V1.25ZM13.3125 24L7.96875 13.7812L12.0781 13.7656L17.5 23.7969V24H13.3125ZM29.6406 20.6094V12.5469C29.6406 11.9427 29.5312 11.4219 29.3125 10.9844C29.0938 10.5469 28.7604 10.2083 28.3125 9.96875C27.875 9.72917 27.3229 9.60938 26.6562 9.60938C26.0417 9.60938 25.5104 9.71354 25.0625 9.92188C24.6146 10.1302 24.2656 10.4115 24.0156 10.7656C23.7656 11.1198 23.6406 11.5208 23.6406 11.9688H19.8906C19.8906 11.3021 20.0521 10.6562 20.375 10.0312C20.6979 9.40625 21.1667 8.84896 21.7812 8.35938C22.3958 7.86979 23.1302 7.48438 23.9844 7.20312C24.8385 6.92188 25.7969 6.78125 26.8594 6.78125C28.1302 6.78125 29.2552 6.99479 30.2344 7.42188C31.224 7.84896 32 8.49479 32.5625 9.35938C33.1354 10.2135 33.4219 11.2865 33.4219 12.5781V20.0938C33.4219 20.8646 33.474 21.5573 33.5781 22.1719C33.6927 22.776 33.8542 23.3021 34.0625 23.75V24H30.2031C30.026 23.5938 29.8854 23.0781 29.7812 22.4531C29.6875 21.8177 29.6406 21.2031 29.6406 20.6094ZM30.1875 13.7188L30.2188 16.0469H27.5156C26.8177 16.0469 26.2031 16.1146 25.6719 16.25C25.1406 16.375 24.6979 16.5625 24.3438 16.8125C23.9896 17.0625 23.724 17.3646 23.5469 17.7188C23.3698 18.0729 23.2812 18.474 23.2812 18.9219C23.2812 19.3698 23.3854 19.7812 23.5938 20.1562C23.8021 20.5208 24.1042 20.8073 24.5 21.0156C24.9062 21.224 25.3958 21.3281 25.9688 21.3281C26.7396 21.3281 27.4115 21.1719 27.9844 20.8594C28.5677 20.5365 29.026 20.1458 29.3594 19.6875C29.6927 19.2188 29.8698 18.776 29.8906 18.3594L31.1094 20.0312C30.9844 20.4583 30.7708 20.9167 30.4688 21.4062C30.1667 21.8958 29.7708 22.3646 29.2812 22.8125C28.8021 23.25 28.224 23.6094 27.5469 23.8906C26.8802 24.1719 26.1094 24.3125 25.2344 24.3125C24.1302 24.3125 23.1458 24.0938 22.2812 23.6562C21.4167 23.2083 20.7396 22.6094 20.25 21.8594C19.7604 21.099 19.5156 20.2396 19.5156 19.2812C19.5156 18.3854 19.6823 17.5938 20.0156 16.9062C20.3594 16.2083 20.8594 15.625 21.5156 15.1562C22.1823 14.6875 22.9948 14.3333 23.9531 14.0938C24.9115 13.8438 26.0052 13.7188 27.2344 13.7188H30.1875ZM42.0156 22.1562L46.6094 7.09375H50.6406L43.8594 26.5781C43.7031 26.9948 43.5 27.4479 43.25 27.9375C43 28.4271 42.6719 28.8906 42.2656 29.3281C41.8698 29.776 41.375 30.1354 40.7812 30.4062C40.1875 30.6875 39.4688 30.8281 38.625 30.8281C38.2917 30.8281 37.9688 30.7969 37.6562 30.7344C37.3542 30.6823 37.0677 30.625 36.7969 30.5625L36.7812 27.6875C36.8854 27.6979 37.0104 27.7083 37.1562 27.7188C37.3125 27.7292 37.4375 27.7344 37.5312 27.7344C38.1562 27.7344 38.6771 27.6562 39.0938 27.5C39.5104 27.3542 39.849 27.1146 40.1094 26.7812C40.3802 26.4479 40.6094 26 40.7969 25.4375L42.0156 22.1562ZM39.4219 7.09375L43.4375 19.75L44.1094 23.7188L41.5 24.3906L35.3594 7.09375H39.4219ZM74.5781 16.5938H78.4844C78.3594 18.0833 77.9427 19.4115 77.2344 20.5781C76.526 21.7344 75.5312 22.6458 74.25 23.3125C72.9688 23.9792 71.4115 24.3125 69.5781 24.3125C68.1719 24.3125 66.9062 24.0625 65.7812 23.5625C64.6562 23.0521 63.6927 22.3333 62.8906 21.4062C62.0885 20.4688 61.474 19.3385 61.0469 18.0156C60.6302 16.6927 60.4219 15.2135 60.4219 13.5781V11.6875C60.4219 10.0521 60.6354 8.57292 61.0625 7.25C61.5 5.92708 62.125 4.79688 62.9375 3.85938C63.75 2.91146 64.724 2.1875 65.8594 1.6875C67.0052 1.1875 68.2917 0.9375 69.7188 0.9375C71.5312 0.9375 73.0625 1.27083 74.3125 1.9375C75.5625 2.60417 76.5312 3.52604 77.2188 4.70312C77.9167 5.88021 78.3438 7.22917 78.5 8.75H74.5938C74.4896 7.77083 74.2604 6.93229 73.9062 6.23438C73.5625 5.53646 73.0521 5.00521 72.375 4.64062C71.6979 4.26562 70.8125 4.07812 69.7188 4.07812C68.8229 4.07812 68.0417 4.24479 67.375 4.57812C66.7083 4.91146 66.151 5.40104 65.7031 6.04688C65.2552 6.69271 64.9167 7.48958 64.6875 8.4375C64.4688 9.375 64.3594 10.4479 64.3594 11.6562V13.5781C64.3594 14.724 64.4583 15.7656 64.6562 16.7031C64.8646 17.6302 65.1771 18.4271 65.5938 19.0938C66.0208 19.7604 66.5625 20.276 67.2188 20.6406C67.875 21.0052 68.6615 21.1875 69.5781 21.1875C70.6927 21.1875 71.5938 21.0104 72.2812 20.6562C72.9792 20.3021 73.5052 19.7865 73.8594 19.1094C74.224 18.4219 74.4635 17.5833 74.5781 16.5938ZM80.9531 15.7344V15.375C80.9531 14.1562 81.1302 13.026 81.4844 11.9844C81.8385 10.9323 82.349 10.0208 83.0156 9.25C83.6927 8.46875 84.5156 7.86458 85.4844 7.4375C86.4635 7 87.5677 6.78125 88.7969 6.78125C90.0365 6.78125 91.1406 7 92.1094 7.4375C93.0885 7.86458 93.9167 8.46875 94.5938 9.25C95.2708 10.0208 95.7865 10.9323 96.1406 11.9844C96.4948 13.026 96.6719 14.1562 96.6719 15.375V15.7344C96.6719 16.9531 96.4948 18.0833 96.1406 19.125C95.7865 20.1667 95.2708 21.0781 94.5938 21.8594C93.9167 22.6302 93.0938 23.2344 92.125 23.6719C91.1562 24.099 90.0573 24.3125 88.8281 24.3125C87.5885 24.3125 86.4792 24.099 85.5 23.6719C84.5312 23.2344 83.7083 22.6302 83.0312 21.8594C82.3542 21.0781 81.8385 20.1667 81.4844 19.125C81.1302 18.0833 80.9531 16.9531 80.9531 15.7344ZM84.7188 15.375V15.7344C84.7188 16.4948 84.7969 17.2135 84.9531 17.8906C85.1094 18.5677 85.3542 19.1615 85.6875 19.6719C86.0208 20.1823 86.4479 20.5833 86.9688 20.875C87.4896 21.1667 88.1094 21.3125 88.8281 21.3125C89.526 21.3125 90.1302 21.1667 90.6406 20.875C91.1615 20.5833 91.5885 20.1823 91.9219 19.6719C92.2552 19.1615 92.5 18.5677 92.6562 17.8906C92.8229 17.2135 92.9062 16.4948 92.9062 15.7344V15.375C92.9062 14.625 92.8229 13.9167 92.6562 13.25C92.5 12.5729 92.25 11.974 91.9062 11.4531C91.5729 10.9323 91.1458 10.526 90.625 10.2344C90.1146 9.93229 89.5052 9.78125 88.7969 9.78125C88.0885 9.78125 87.474 9.93229 86.9531 10.2344C86.4427 10.526 86.0208 10.9323 85.6875 11.4531C85.3542 11.974 85.1094 12.5729 84.9531 13.25C84.7969 13.9167 84.7188 14.625 84.7188 15.375ZM110.141 20.5V0H113.922V24H110.5L110.141 20.5ZM99.1406 15.7344V15.4062C99.1406 14.125 99.2917 12.9583 99.5938 11.9062C99.8958 10.8438 100.333 9.93229 100.906 9.17188C101.479 8.40104 102.177 7.8125 103 7.40625C103.823 6.98958 104.75 6.78125 105.781 6.78125C106.802 6.78125 107.698 6.97917 108.469 7.375C109.24 7.77083 109.896 8.33854 110.438 9.07812C110.979 9.80729 111.411 10.6823 111.734 11.7031C112.057 12.7135 112.286 13.8385 112.422 15.0781V16.125C112.286 17.3333 112.057 18.4375 111.734 19.4375C111.411 20.4375 110.979 21.3021 110.438 22.0312C109.896 22.7604 109.234 23.3229 108.453 23.7188C107.682 24.1146 106.781 24.3125 105.75 24.3125C104.729 24.3125 103.807 24.099 102.984 23.6719C102.172 23.2448 101.479 22.6458 100.906 21.875C100.333 21.1042 99.8958 20.1979 99.5938 19.1562C99.2917 18.1042 99.1406 16.9635 99.1406 15.7344ZM102.906 15.4062V15.7344C102.906 16.5052 102.974 17.224 103.109 17.8906C103.255 18.5573 103.479 19.1458 103.781 19.6562C104.083 20.1562 104.474 20.5521 104.953 20.8438C105.443 21.125 106.026 21.2656 106.703 21.2656C107.557 21.2656 108.26 21.0781 108.812 20.7031C109.365 20.3281 109.797 19.8229 110.109 19.1875C110.432 18.5417 110.651 17.8229 110.766 17.0312V14.2031C110.703 13.5885 110.573 13.0156 110.375 12.4844C110.188 11.9531 109.932 11.4896 109.609 11.0938C109.286 10.6875 108.885 10.375 108.406 10.1562C107.938 9.92708 107.38 9.8125 106.734 9.8125C106.047 9.8125 105.464 9.95833 104.984 10.25C104.505 10.5417 104.109 10.9427 103.797 11.4531C103.495 11.9635 103.271 12.5573 103.125 13.2344C102.979 13.9115 102.906 14.6354 102.906 15.4062ZM125.312 24.3125C124.062 24.3125 122.932 24.1094 121.922 23.7031C120.922 23.2865 120.068 22.7083 119.359 21.9688C118.661 21.2292 118.125 20.3594 117.75 19.3594C117.375 18.3594 117.188 17.2812 117.188 16.125V15.5C117.188 14.1771 117.38 12.9792 117.766 11.9062C118.151 10.8333 118.688 9.91667 119.375 9.15625C120.062 8.38542 120.875 7.79688 121.812 7.39062C122.75 6.98438 123.766 6.78125 124.859 6.78125C126.068 6.78125 127.125 6.98438 128.031 7.39062C128.938 7.79688 129.688 8.36979 130.281 9.10938C130.885 9.83854 131.333 10.7083 131.625 11.7188C131.927 12.7292 132.078 13.8438 132.078 15.0625V16.6719H119.016V13.9688H128.359V13.6719C128.339 12.9948 128.203 12.3594 127.953 11.7656C127.714 11.1719 127.344 10.6927 126.844 10.3281C126.344 9.96354 125.677 9.78125 124.844 9.78125C124.219 9.78125 123.661 9.91667 123.172 10.1875C122.693 10.4479 122.292 10.8281 121.969 11.3281C121.646 11.8281 121.396 12.4323 121.219 13.1406C121.052 13.8385 120.969 14.625 120.969 15.5V16.125C120.969 16.8646 121.068 17.5521 121.266 18.1875C121.474 18.8125 121.776 19.3594 122.172 19.8281C122.568 20.2969 123.047 20.6667 123.609 20.9375C124.172 21.1979 124.812 21.3281 125.531 21.3281C126.438 21.3281 127.245 21.1458 127.953 20.7812C128.661 20.4167 129.276 19.901 129.797 19.2344L131.781 21.1562C131.417 21.6875 130.943 22.1979 130.359 22.6875C129.776 23.1667 129.062 23.5573 128.219 23.8594C127.385 24.1615 126.417 24.3125 125.312 24.3125ZM135.172 22.125C135.172 21.5417 135.37 21.0521 135.766 20.6562C136.161 20.25 136.698 20.0469 137.375 20.0469C138.062 20.0469 138.599 20.25 138.984 20.6562C139.38 21.0521 139.578 21.5417 139.578 22.125C139.578 22.7083 139.38 23.1979 138.984 23.5938C138.599 23.9896 138.062 24.1875 137.375 24.1875C136.698 24.1875 136.161 23.9896 135.766 23.5938C135.37 23.1979 135.172 22.7083 135.172 22.125Z" fill="white"/>
</svg>
